<?xml version="1.0" encoding="UTF-8"?>
<svg version="1.1" xmlns="http://www.w3.org/2000/svg" width="209" height="157">
<path d="M0 0 C4.0541264 3.22096906 7.04191746 6.65468125 8.03125 11.83984375 C10.21046582 35.021252 -1.82532268 53.66406562 -15.96875 70.83984375 C-19.4889249 74.98282793 -23.18892431 78.93179389 -26.96875 82.83984375 C-28.21785156 84.14888672 -28.21785156 84.14888672 -29.4921875 85.484375 C-34.59281912 90.72177434 -39.88626625 95.25572154 -45.81640625 99.5390625 C-48.61638919 102.53214771 -48.73085507 104.82476 -48.96875 108.83984375 C-48.44925781 108.36933594 -47.92976563 107.89882812 -47.39453125 107.4140625 C-37.75836525 98.81097899 -37.75836525 98.81097899 -32.09375 98.90234375 C-29.10254615 99.39527622 -27.01338979 100.27563338 -24.46875 101.90234375 C-20.67275269 104.23112412 -17.32675374 104.59902698 -12.96875 103.83984375 C-8.90074021 102.67898487 -4.93116084 101.3191438 -0.96875 99.83984375 C-0.63875 97.85984375 -0.30875 95.87984375 0.03125 93.83984375 C-1.94875 93.34484375 -1.94875 93.34484375 -3.96875 92.83984375 C-3.42151317 89.4652166 -2.91385 87.75749375 -0.96875 84.83984375 C1.15625 84.15234375 1.15625 84.15234375 3.03125 83.83984375 C1.05125 83.83984375 -0.92875 83.83984375 -2.96875 83.83984375 C-3.71875 81.08984375 -3.71875 81.08984375 -3.96875 77.83984375 C-2.59375 75.52734375 -2.59375 75.52734375 0.03125 73.83984375 C2.33571513 73.38310291 4.56558823 73.15400591 6.91015625 73.015625 C9.21997163 72.90848979 9.21997163 72.90848979 12.03125 71.83984375 C12.03125 72.49984375 12.03125 73.15984375 12.03125 73.83984375 C12.69125 73.83984375 13.35125 73.83984375 14.03125 73.83984375 C14.22566368 71.54875325 14.41158135 69.25694038 14.59375 66.96484375 C14.69816406 65.68867187 14.80257812 64.4125 14.91015625 63.09765625 C15.28808367 59.95340433 15.28808367 59.95340433 14.03125 57.83984375 C12.54625 58.33484375 12.54625 58.33484375 11.03125 58.83984375 C11.36125 57.51984375 11.69125 56.19984375 12.03125 54.83984375 C12.69125 54.83984375 13.35125 54.83984375 14.03125 54.83984375 C14.03125 52.52984375 14.03125 50.21984375 14.03125 47.83984375 C12.54625 47.34484375 12.54625 47.34484375 11.03125 46.83984375 C10.21875 44.90234375 10.21875 44.90234375 10.03125 42.83984375 C11.02125 41.84984375 11.02125 41.84984375 12.03125 40.83984375 C13.17945766 38.2057203 14.12241374 35.56635254 15.03125 32.83984375 C16.35125 33.49984375 17.67125 34.15984375 19.03125 34.83984375 C18.53625 31.37484375 18.53625 31.37484375 18.03125 27.83984375 C19.69791667 26.83984375 21.36458333 25.83984375 23.03125 24.83984375 C24.145 24.00453125 24.145 24.00453125 25.28125 23.15234375 C29.22939953 21.26799966 32.73734249 21.02306787 37.03125 21.83984375 C40.83653645 24.45597818 41.8310402 26.05235189 42.96875 30.52734375 C42.9996875 32.16703125 42.9996875 32.16703125 43.03125 33.83984375 C42.04125 34.82984375 42.04125 34.82984375 41.03125 35.83984375 C38.40625 35.46484375 38.40625 35.46484375 36.03125 34.83984375 C35.70125 33.51984375 35.37125 32.19984375 35.03125 30.83984375 C36.02125 30.50984375 37.01125 30.17984375 38.03125 29.83984375 C38.36125 30.82984375 38.69125 31.81984375 39.03125 32.83984375 C39.36125 31.18984375 39.69125 29.53984375 40.03125 27.83984375 C38.38125 26.51984375 36.73125 25.19984375 35.03125 23.83984375 C35.03125 25.15984375 35.03125 26.47984375 35.03125 27.83984375 C34.04125 27.50984375 33.05125 27.17984375 32.03125 26.83984375 C32.36125 26.17984375 32.69125 25.51984375 33.03125 24.83984375 C31.54925098 25.28893436 30.07069764 25.74940939 28.59375 26.21484375 C27.77003906 26.47007813 26.94632813 26.7253125 26.09765625 26.98828125 C23.85326984 27.64866602 23.85326984 27.64866602 23.03125 29.83984375 C24.02125 29.50984375 25.01125 29.17984375 26.03125 28.83984375 C26.03125 29.82984375 26.03125 30.81984375 26.03125 31.83984375 C27.2378125 32.70609375 27.2378125 32.70609375 28.46875 33.58984375 C31.84552642 36.55481817 31.65294767 38.45153677 32.03125 42.83984375 C32.65381028 44.85400937 33.30691653 46.85999894 34.03125 48.83984375 C34.36125 48.17984375 34.69125 47.51984375 35.03125 46.83984375 C35.23621094 47.61070313 35.44117188 48.3815625 35.65234375 49.17578125 C35.92175781 50.17867187 36.19117188 51.1815625 36.46875 52.21484375 C36.73558594 53.21257813 37.00242188 54.2103125 37.27734375 55.23828125 C37.93309356 57.79402076 37.93309356 57.79402076 39.03125 59.83984375 C39.69125 59.83984375 40.35125 59.83984375 41.03125 59.83984375 C40.89847656 60.39671875 40.76570312 60.95359375 40.62890625 61.52734375 C39.73602277 65.38564316 38.95529037 69.14302801 38.59375 73.08984375 C38.02539987 76.87884459 37.45234102 78.89994752 35.03125 81.83984375 C32.34375 83.15234375 32.34375 83.15234375 30.03125 83.83984375 C30.258125 84.43796875 30.485 85.03609375 30.71875 85.65234375 C31.03125 87.83984375 31.03125 87.83984375 29.71875 89.58984375 C28.03125 90.83984375 28.03125 90.83984375 26.03125 90.83984375 C26.26457031 91.41476563 26.49789062 91.9896875 26.73828125 92.58203125 C27.03125 94.83984375 27.03125 94.83984375 25.73046875 96.91015625 C20.53849125 102.21303035 16.43809987 104.23272491 9.03125 104.83984375 C8.70125 106.48984375 8.37125 108.13984375 8.03125 109.83984375 C6.71125 109.83984375 5.39125 109.83984375 4.03125 109.83984375 C4.03125 108.84984375 4.03125 107.85984375 4.03125 106.83984375 C4.69125 106.50984375 5.35125 106.17984375 6.03125 105.83984375 C4.54625 104.84984375 4.54625 104.84984375 3.03125 103.83984375 C3.03125 103.17984375 3.03125 102.51984375 3.03125 101.83984375 C2.1134375 102.26136719 1.195625 102.68289062 0.25 103.1171875 C-16.19901948 110.52653451 -16.19901948 110.52653451 -25.96875 106.83984375 C-26.814375 106.28296875 -27.66 105.72609375 -28.53125 105.15234375 C-31.84649432 103.36721219 -33.3812081 103.81547081 -36.96875 104.83984375 C-39.43348937 107.06460969 -39.43348937 107.06460969 -41.53125 109.83984375 C-45.37787999 114.66698726 -45.37787999 114.66698726 -48.74609375 115.65234375 C-49.47957031 115.71421875 -50.21304688 115.77609375 -50.96875 115.83984375 C-54.11833831 112.4163782 -54.53054109 109.39721638 -54.96875 104.83984375 C-57.60875 105.16984375 -60.24875 105.49984375 -62.96875 105.83984375 C-63.21625 106.70609375 -63.46375 107.57234375 -63.71875 108.46484375 C-65.14968589 112.32837065 -67.02224564 115.89333939 -69.96875 118.83984375 C-72.84375 119.15234375 -72.84375 119.15234375 -75.96875 118.83984375 C-78.70052965 115.98957727 -79.49936277 113.43010756 -80.15625 109.58984375 C-80.31480469 108.6978125 -80.47335938 107.80578125 -80.63671875 106.88671875 C-80.74628906 106.21125 -80.85585937 105.53578125 -80.96875 104.83984375 C-84.43375 105.33484375 -84.43375 105.33484375 -87.96875 105.83984375 C-88.05125 106.52046875 -88.13375 107.20109375 -88.21875 107.90234375 C-89.20404775 111.76142662 -90.83171634 114.47239677 -92.96875 117.83984375 C-95.82995256 119.27044503 -97.80885585 119.22676956 -100.96875 118.83984375 C-106.04406753 113.40200354 -106.54184273 103.17604143 -106.4296875 96.04296875 C-105.87880468 93.40993563 -105.12585605 92.50215572 -103.09375 90.77734375 C-98.6415067 88.0169529 -96.29023887 87.2893449 -90.96875 87.83984375 C-87.45713804 90.70457983 -86.72520934 93.31321914 -86.21875 97.65234375 C-86.11863885 99.04707415 -86.02962116 100.44285061 -85.96875 101.83984375 C-84.64875 101.83984375 -83.32875 101.83984375 -81.96875 101.83984375 C-82.0925 100.99421875 -82.21625 100.14859375 -82.34375 99.27734375 C-81.82285732 94.50249418 -79.39648923 92.06333945 -75.96875 88.83984375 C-72.87701248 87.29397499 -70.37445448 87.54624854 -66.96875 87.83984375 C-64.04161522 89.58030227 -63.17936954 91.07198508 -62.28515625 94.33203125 C-61.77233558 96.82893742 -61.33457603 99.31756951 -60.96875 101.83984375 C-58.98875 101.83984375 -57.00875 101.83984375 -54.96875 101.83984375 C-55.113125 100.70289062 -55.2575 99.5659375 -55.40625 98.39453125 C-58.92731896 69.61825056 -56.28477456 40.8544721 -38.53125 16.83984375 C-30.28922738 7.09420889 -13.66048642 -8.0499295 0 0 Z M-33.3203125 17.7890625 C-51.06270167 42.38511705 -53.39590042 69.54067085 -50.96875 98.83984375 C-44.89668617 94.97091812 -39.77531478 90.2901364 -34.56103516 85.34863281 C-33.53081334 84.37243367 -32.49686291 83.40014812 -31.45849609 82.43261719 C-19.7167742 71.45505757 -9.89520703 59.12091647 -2.34375 44.90234375 C-1.9420459 44.14622803 -1.5403418 43.3901123 -1.12646484 42.61108398 C3.50399971 33.48271015 6.50596896 24.14934696 5.03125 13.83984375 C3.26254818 8.78447379 1.54288469 4.84760021 -2.96875 1.83984375 C-15.41720959 -0.57856864 -26.08722606 8.71766672 -33.3203125 17.7890625 Z M16.03125 35.83984375 C17.03125 37.83984375 17.03125 37.83984375 17.03125 37.83984375 Z M16.03125 42.83984375 C17.03125 46.83984375 17.03125 46.83984375 17.03125 46.83984375 Z M-0.96875 75.83984375 C-1.29875 77.48984375 -1.62875 79.13984375 -1.96875 80.83984375 C-0.97875 81.16984375 0.01125 81.49984375 1.03125 81.83984375 C2.6145753 80.59100105 2.6145753 80.59100105 4.03125 78.83984375 C4.03125 77.51984375 4.03125 76.19984375 4.03125 74.83984375 C1.82043149 74.73443449 1.82043149 74.73443449 -0.96875 75.83984375 Z M-1.96875 89.83984375 C-0.71696404 92.34341567 1.03106158 93.90417754 3.03125 95.83984375 C3.36125 93.52984375 3.69125 91.21984375 4.03125 88.83984375 C0.97854537 88.68172987 0.97854537 88.68172987 -1.96875 89.83984375 Z M-72.59375 93.33984375 C-73.0475 93.83484375 -73.50125 94.32984375 -73.96875 94.83984375 C-72.97875 94.83984375 -71.98875 94.83984375 -70.96875 94.83984375 C-70.96875 95.49984375 -70.96875 96.15984375 -70.96875 96.83984375 C-71.95875 97.16984375 -72.94875 97.49984375 -73.96875 97.83984375 C-74.29875 98.82984375 -74.62875 99.81984375 -74.96875 100.83984375 C-71.45841871 102.52614494 -71.45841871 102.52614494 -67.65625 102.46484375 C-67.099375 102.25859375 -66.5425 102.05234375 -65.96875 101.83984375 C-65.52911392 97.09393812 -65.52911392 97.09393812 -67.34375 92.90234375 C-69.72989408 91.34217262 -70.49127765 91.39910004 -72.59375 93.33984375 Z M-97.15625 92.77734375 C-97.754375 93.12796875 -98.3525 93.47859375 -98.96875 93.83984375 C-97.97875 94.16984375 -96.98875 94.49984375 -95.96875 94.83984375 C-96.484375 95.43796875 -97 96.03609375 -97.53125 96.65234375 C-98.2428125 97.73515625 -98.2428125 97.73515625 -98.96875 98.83984375 C-98.63875 99.82984375 -98.30875 100.81984375 -97.96875 101.83984375 C-95.65875 102.16984375 -93.34875 102.49984375 -90.96875 102.83984375 C-89.99990275 98.66553588 -89.99990275 98.66553588 -90.71875 94.52734375 C-92.65276543 91.91642292 -94.19313347 91.50743667 -97.15625 92.77734375 Z M-99.96875 105.83984375 C-99.48390724 110.48571267 -99.48390724 110.48571267 -97.96875 114.83984375 C-94.69564105 114.11830063 -94.69564105 114.11830063 -93.28125 110.90234375 C-91.83744357 108.08877886 -91.83744357 108.08877886 -91.96875 105.83984375 C-94.60875 105.83984375 -97.24875 105.83984375 -99.96875 105.83984375 Z M-74.96875 105.83984375 C-75.37624675 110.09715943 -75.37624675 110.09715943 -73.46875 113.71484375 C-72.97375 114.08609375 -72.47875 114.45734375 -71.96875 114.83984375 C-68.8770591 112.31027847 -68.05943668 109.61529763 -66.96875 105.83984375 C-69.60875 105.83984375 -72.24875 105.83984375 -74.96875 105.83984375 Z " fill="#F1EAD9" transform="translate(165.96875,2.16015625)"/>
<path d="M0 0 C3.06148118 2.68812982 4.3042581 4.59725182 4.93359375 8.625 C5.31884785 23.85386781 -3.9406968 37.06476489 -13.97827148 47.83105469 C-23.75344623 57.91288229 -34.74565644 64.41729141 -47.4375 70.25 C-46.96699219 70.61351563 -46.49648438 70.97703125 -46.01171875 71.3515625 C-40.39564289 75.88628214 -37.64535137 80.04397063 -36.4375 87.25 C-36.31825898 89.05521851 -36.23834241 90.86333158 -36.19140625 92.671875 C-36.15853516 93.69796875 -36.12566406 94.7240625 -36.09179688 95.78125 C-36.03104731 97.91136252 -35.97370408 100.04157517 -35.91992188 102.171875 C-35.99791906 112.93928115 -35.99791906 112.93928115 -31.5625 122.1875 C-30.86125 122.538125 -30.16 122.88875 -29.4375 123.25 C-28.695 123.641875 -27.9525 124.03375 -27.1875 124.4375 C-26.61 124.705625 -26.0325 124.97375 -25.4375 125.25 C-25.4375 126.24 -25.4375 127.23 -25.4375 128.25 C-30.3841962 127.75533038 -34.25282022 127.0080844 -38.4375 124.25 C-42.03255035 118.54750634 -42.53599143 113.05881508 -42.83203125 106.4453125 C-42.90099609 105.13949219 -42.96996094 103.83367187 -43.04101562 102.48828125 C-43.14808426 100.4326615 -43.24989911 98.3774048 -43.33618164 96.32080078 C-43.53015051 85.48168974 -43.53015051 85.48168974 -48.4375 76.25 C-51.19450055 74.99823522 -51.19450055 74.99823522 -54.1875 74.8125 C-55.17234375 74.69003906 -56.1571875 74.56757812 -57.171875 74.44140625 C-57.91953125 74.37824219 -58.6671875 74.31507812 -59.4375 74.25 C-59.7675 72.6 -60.0975 70.95 -60.4375 69.25 C-59.42171875 68.82589844 -58.4059375 68.40179688 -57.359375 67.96484375 C-34.17428419 58.15326414 -14.47330252 44.70588689 -3.4375 21.25 C-2.963125 20.26 -2.48875 19.27 -2 18.25 C-1.11590061 13.53480324 -1.81508242 8.97700916 -2.4375 4.25 C-12.47302988 3.03881536 -20.5160129 7.6482776 -28.39453125 13.4140625 C-58.94717399 39.55208876 -74.06209489 89.39913733 -80.61328125 127.68359375 C-81.34495518 131.93774215 -82.34004482 136.07583641 -83.4375 140.25 C-85.0875 139.92 -86.7375 139.59 -88.4375 139.25 C-89.7188648 97.73615328 -75.74338334 53.9914926 -65.4375 14.25 C-64.1175 14.25 -62.7975 14.25 -61.4375 14.25 C-61.14764803 21.704082 -61.79776192 28.23085459 -63.703125 35.4296875 C-64.0551297 36.82986618 -64.0551297 36.82986618 -64.41424561 38.2583313 C-65.15981336 41.21714339 -65.92236329 44.17119385 -66.6875 47.125 C-67.68001683 50.99536243 -68.66414747 54.86774764 -69.640625 58.7421875 C-69.87962524 59.6886615 -70.11862549 60.6351355 -70.36486816 61.61029053 C-72.79854112 71.41368651 -74.66819373 81.30824495 -76.4375 91.25 C-76.18693848 90.48147705 -75.93637695 89.7129541 -75.67822266 88.92114258 C-65.10079952 56.73075802 -51.72792487 19.66245925 -20.68359375 1.65234375 C-13.51138596 -1.92877252 -7.3898332 -3.7620969 0 0 Z M-78.4375 95.25 C-77.4375 97.25 -77.4375 97.25 -77.4375 97.25 Z " fill="#F1EBDA" transform="translate(88.4375,13.75)"/>
<path d="M0 0 C-0.33 0.66 -0.66 1.32 -1 2 C-3.64 2 -6.28 2 -9 2 C-9.33 3.65 -9.66 5.3 -10 7 C-9.01 6.67 -8.02 6.34 -7 6 C-6.01 5.67 -5.02 5.34 -4 5 C-4 4.34 -4 3.68 -4 3 C-3.34 3 -2.68 3 -2 3 C-1.45627049 6.05847848 -1 8.88772805 -1 12 C-1.66 12 -2.32 12 -3 12 C-3.33 13.32 -3.66 14.64 -4 16 C-5.98 16 -7.96 16 -10 16 C-9.0409375 16.86625 -9.0409375 16.86625 -8.0625 17.75 C-6.00766279 19.99164059 -5.19330938 21.00370457 -5 24 C-5.66 24.99 -6.32 25.98 -7 27 C-7.66 26.67 -8.32 26.34 -9 26 C-8.67 24.02 -8.34 22.04 -8 20 C-9.32 19.67 -10.64 19.34 -12 19 C-11.45276317 15.62537285 -10.9451 13.91765 -9 11 C-6.875 10.3125 -6.875 10.3125 -5 10 C-6.98 10 -8.96 10 -11 10 C-11.75 7.25 -11.75 7.25 -12 4 C-8.48724945 -0.64184894 -5.50025079 -1.33789884 0 0 Z " fill="#F9F7F0" transform="translate(174,76)"/>
<path d="M0 0 C3.80528645 2.61613443 4.7997902 4.21250814 5.9375 8.6875 C5.958125 9.780625 5.97875 10.87375 6 12 C5.34 12.66 4.68 13.32 4 14 C1.375 13.625 1.375 13.625 -1 13 C-1.33 11.68 -1.66 10.36 -2 9 C-1.01 8.67 -0.02 8.34 1 8 C1.33 8.99 1.66 9.98 2 11 C2.33 9.35 2.66 7.7 3 6 C1.35 4.68 -0.3 3.36 -2 2 C-2 3.32 -2 4.64 -2 6 C-2.99 5.67 -3.98 5.34 -5 5 C-4.67 4.34 -4.34 3.68 -4 3 C-11.16822273 4.77675434 -11.16822273 4.77675434 -16 10 C-16.99 10.495 -16.99 10.495 -18 11 C-18.33 9.35 -18.66 7.7 -19 6 C-17.33333333 5 -15.66666667 4 -14 3 C-13.2575 2.443125 -12.515 1.88625 -11.75 1.3125 C-7.80185047 -0.57184409 -4.29390751 -0.81677588 0 0 Z " fill="#F6F2E7" transform="translate(203,24)"/>
<path d="M0 0 C2.475 0.99 2.475 0.99 5 2 C4.67 2.763125 4.34 3.52625 4 4.3125 C2.82563314 6.99069135 2.82563314 6.99069135 3 10 C2.68578929 12.00309329 2.3548954 14.00371336 2 16 C-0.4375 15.25 -0.4375 15.25 -3 14 C-3.9375 12 -3.9375 12 -4 10 C-3.34 9.34 -2.68 8.68 -2 8 C-0.6507329 5.07658794 0 3.24792684 0 0 Z M2 3 C3 5 3 5 3 5 Z " fill="#F9F6EF" transform="translate(180,35)"/>
<path d="M0 0 C1.32 0 2.64 0 4 0 C4 0.66 4 1.32 4 2 C3.01 2 2.02 2 1 2 C1.639375 2.5775 2.27875 3.155 2.9375 3.75 C4.99233721 5.99164059 5.80669062 7.00370457 6 10 C5.01 11.485 5.01 11.485 4 13 C3.34 12.67 2.68 12.34 2 12 C2.33 10.02 2.66 8.04 3 6 C1.68 5.67 0.36 5.34 -1 5 C-0.67 3.35 -0.34 1.7 0 0 Z " fill="#F6F2E7" transform="translate(163,90)"/>
<path d="M0 0 C2.375 0.3125 2.375 0.3125 5 1 C7 4 7 4 6.625 6.6875 C6.41875 7.450625 6.2125 8.21375 6 9 C4.68 9 3.36 9 2 9 C2 8.01 2 7.02 2 6 C2.66 5.67 3.32 5.34 4 5 C3.34 4.360625 2.68 3.72125 2 3.0625 C0 1 0 1 0 0 Z " fill="#F8F4EB" transform="translate(168,103)"/>
<path d="M0 0 C-2.22825644 2.22825644 -3.65761628 2.69239369 -6.625 3.625 C-7.44226563 3.88539062 -8.25953125 4.14578125 -9.1015625 4.4140625 C-9.72804687 4.60742188 -10.35453125 4.80078125 -11 5 C-11 4.34 -11 3.68 -11 3 C-11.66 2.67 -12.32 2.34 -13 2 C-11.39935157 1.46845258 -9.79431126 0.95011647 -8.1875 0.4375 C-7.29417969 0.14746094 -6.40085938 -0.14257812 -5.48046875 -0.44140625 C-3 -1 -3 -1 0 0 Z " fill="#F6F2E7" transform="translate(166,104)"/>
<path d="M0 0 C0.103125 0.639375 0.20625 1.27875 0.3125 1.9375 C0.539375 2.618125 0.76625 3.29875 1 4 C1.99 4.33 2.98 4.66 4 5 C3.67 5.66 3.34 6.32 3 7 C2.01 7 1.02 7 0 7 C-0.38133299 5.0085944 -0.71325582 3.00720923 -1 1 C-0.67 0.67 -0.34 0.34 0 0 Z " fill="#F5F0E3" transform="translate(163,79)"/>
<path d="M0 0 C1.98 0.99 1.98 0.99 4 2 C3.34 4.31 2.68 6.62 2 9 C-0.29013653 5.5647952 -0.17842973 4.014669 0 0 Z " fill="#F8F5ED" transform="translate(203,60)"/>
<path d="" fill="#FEFDFC" transform="translate(0,0)"/>
<path d="" fill="#FBFAF5" transform="translate(0,0)"/>
<path d="M0 0 C2 1 2 1 2 1 Z " fill="#FDFCFA" transform="translate(182,29)"/>
<path d="" fill="#FEFDFC" transform="translate(0,0)"/>
<path d="" fill="#FDFCF9" transform="translate(0,0)"/>
<path d="" fill="#FDFCF9" transform="translate(0,0)"/>
</svg>
